<mxfile host="app.diagrams.net" modified="2021-06-04T15:52:34.175Z" agent="5.0 (Windows NT 10.0; Win64; x64) AppleWebKit/537.36 (KHTML, like Gecko) Chrome/88.0.4324.182 Safari/537.36" etag="KwReYtMYXvp3xRijo7Ip" version="14.7.5" type="github">
  <diagram id="t-rKNySVFQskrCuy9906" name="Page-1">
    <mxGraphModel dx="1241" dy="745" grid="1" gridSize="10" guides="1" tooltips="1" connect="1" arrows="1" fold="1" page="1" pageScale="1" pageWidth="3300" pageHeight="4681" math="0" shadow="0">
      <root>
        <mxCell id="0" />
        <mxCell id="1" parent="0" />
        <mxCell id="04QQaVXtBeui4Vy4h8IW-2" value="" style="edgeStyle=orthogonalEdgeStyle;rounded=0;orthogonalLoop=1;jettySize=auto;html=1;endArrow=classic;endFill=1;" parent="1" source="ZBan1I0MRzJhqz7Fn9MQ-2" target="04QQaVXtBeui4Vy4h8IW-1" edge="1">
          <mxGeometry relative="1" as="geometry" />
        </mxCell>
        <mxCell id="ZBan1I0MRzJhqz7Fn9MQ-2" value="DECLARE menu = [&quot;Sort the List&quot;, &quot;Return&quot;]" style="rounded=1;whiteSpace=wrap;html=1;" parent="1" vertex="1">
          <mxGeometry x="480" y="300" width="230" height="40" as="geometry" />
        </mxCell>
        <mxCell id="ZBan1I0MRzJhqz7Fn9MQ-11" value="" style="edgeStyle=orthogonalEdgeStyle;rounded=0;orthogonalLoop=1;jettySize=auto;html=1;" parent="1" source="ZBan1I0MRzJhqz7Fn9MQ-6" target="ZBan1I0MRzJhqz7Fn9MQ-10" edge="1">
          <mxGeometry relative="1" as="geometry" />
        </mxCell>
        <mxCell id="ZBan1I0MRzJhqz7Fn9MQ-6" value="PRINT(&quot;Please Select: &quot;)" style="rounded=1;whiteSpace=wrap;html=1;" parent="1" vertex="1">
          <mxGeometry x="480" y="520" width="230" height="40" as="geometry" />
        </mxCell>
        <mxCell id="ZBan1I0MRzJhqz7Fn9MQ-13" value="" style="edgeStyle=orthogonalEdgeStyle;rounded=0;orthogonalLoop=1;jettySize=auto;html=1;" parent="1" source="ZBan1I0MRzJhqz7Fn9MQ-10" target="ZBan1I0MRzJhqz7Fn9MQ-12" edge="1">
          <mxGeometry relative="1" as="geometry" />
        </mxCell>
        <mxCell id="ZBan1I0MRzJhqz7Fn9MQ-10" value="READ choice" style="shape=parallelogram;perimeter=parallelogramPerimeter;whiteSpace=wrap;html=1;fixedSize=1;" parent="1" vertex="1">
          <mxGeometry x="480" y="610" width="229" height="50" as="geometry" />
        </mxCell>
        <mxCell id="ZBan1I0MRzJhqz7Fn9MQ-14" style="edgeStyle=orthogonalEdgeStyle;rounded=0;orthogonalLoop=1;jettySize=auto;html=1;" parent="1" source="ZBan1I0MRzJhqz7Fn9MQ-12" edge="1">
          <mxGeometry relative="1" as="geometry">
            <Array as="points">
              <mxPoint x="770" y="770" />
              <mxPoint x="770" y="370" />
            </Array>
            <mxPoint x="595" y="370" as="targetPoint" />
          </mxGeometry>
        </mxCell>
        <mxCell id="Fx3aAsQ9bExK4lKImbGH-2" value="" style="edgeStyle=orthogonalEdgeStyle;rounded=0;orthogonalLoop=1;jettySize=auto;html=1;" edge="1" parent="1" source="ZBan1I0MRzJhqz7Fn9MQ-12" target="Fx3aAsQ9bExK4lKImbGH-1">
          <mxGeometry relative="1" as="geometry" />
        </mxCell>
        <mxCell id="ZBan1I0MRzJhqz7Fn9MQ-12" value="choice == &#39;1&#39; or choice == &#39;2&#39;" style="rhombus;whiteSpace=wrap;html=1;" parent="1" vertex="1">
          <mxGeometry x="499.5" y="720" width="190" height="100" as="geometry" />
        </mxCell>
        <mxCell id="ZBan1I0MRzJhqz7Fn9MQ-22" style="edgeStyle=orthogonalEdgeStyle;rounded=0;orthogonalLoop=1;jettySize=auto;html=1;entryX=0;entryY=0.5;entryDx=0;entryDy=0;" parent="1" source="ZBan1I0MRzJhqz7Fn9MQ-15" target="ZBan1I0MRzJhqz7Fn9MQ-16" edge="1">
          <mxGeometry relative="1" as="geometry" />
        </mxCell>
        <mxCell id="04QQaVXtBeui4Vy4h8IW-8" value="" style="edgeStyle=orthogonalEdgeStyle;rounded=0;orthogonalLoop=1;jettySize=auto;html=1;endArrow=classic;endFill=1;" parent="1" source="ZBan1I0MRzJhqz7Fn9MQ-15" target="04QQaVXtBeui4Vy4h8IW-7" edge="1">
          <mxGeometry relative="1" as="geometry" />
        </mxCell>
        <mxCell id="ZBan1I0MRzJhqz7Fn9MQ-15" value="choice == &#39;1&#39;" style="rhombus;whiteSpace=wrap;html=1;" parent="1" vertex="1">
          <mxGeometry x="329.5" y="840" width="110" height="100" as="geometry" />
        </mxCell>
        <mxCell id="ZBan1I0MRzJhqz7Fn9MQ-24" value="" style="edgeStyle=orthogonalEdgeStyle;rounded=0;orthogonalLoop=1;jettySize=auto;html=1;" parent="1" source="ZBan1I0MRzJhqz7Fn9MQ-16" target="ZBan1I0MRzJhqz7Fn9MQ-23" edge="1">
          <mxGeometry relative="1" as="geometry" />
        </mxCell>
        <mxCell id="ZBan1I0MRzJhqz7Fn9MQ-16" value="choice == &#39;2&#39;" style="rhombus;whiteSpace=wrap;html=1;" parent="1" vertex="1">
          <mxGeometry x="669.5" y="840" width="110" height="100" as="geometry" />
        </mxCell>
        <mxCell id="ZBan1I0MRzJhqz7Fn9MQ-23" value="Return" style="ellipse;whiteSpace=wrap;html=1;" parent="1" vertex="1">
          <mxGeometry x="679.5" y="980" width="90" height="60" as="geometry" />
        </mxCell>
        <mxCell id="ZBan1I0MRzJhqz7Fn9MQ-25" value="False" style="text;html=1;align=center;verticalAlign=middle;resizable=0;points=[];autosize=1;strokeColor=none;" parent="1" vertex="1">
          <mxGeometry x="435" y="870" width="40" height="20" as="geometry" />
        </mxCell>
        <mxCell id="ZBan1I0MRzJhqz7Fn9MQ-26" value="True" style="text;html=1;align=center;verticalAlign=middle;resizable=0;points=[];autosize=1;strokeColor=none;" parent="1" vertex="1">
          <mxGeometry x="380" y="940" width="40" height="20" as="geometry" />
        </mxCell>
        <mxCell id="ZBan1I0MRzJhqz7Fn9MQ-27" value="True" style="text;html=1;align=center;verticalAlign=middle;resizable=0;points=[];autosize=1;strokeColor=none;" parent="1" vertex="1">
          <mxGeometry x="719.5" y="940" width="40" height="20" as="geometry" />
        </mxCell>
        <mxCell id="ZBan1I0MRzJhqz7Fn9MQ-28" value="True" style="text;html=1;align=center;verticalAlign=middle;resizable=0;points=[];autosize=1;strokeColor=none;" parent="1" vertex="1">
          <mxGeometry x="464.5" y="750" width="40" height="20" as="geometry" />
        </mxCell>
        <mxCell id="ZBan1I0MRzJhqz7Fn9MQ-29" value="False" style="text;html=1;align=center;verticalAlign=middle;resizable=0;points=[];autosize=1;strokeColor=none;" parent="1" vertex="1">
          <mxGeometry x="679.5" y="750" width="40" height="20" as="geometry" />
        </mxCell>
        <mxCell id="04QQaVXtBeui4Vy4h8IW-3" value="" style="edgeStyle=orthogonalEdgeStyle;rounded=0;orthogonalLoop=1;jettySize=auto;html=1;endArrow=classic;endFill=1;" parent="1" source="04QQaVXtBeui4Vy4h8IW-1" target="ZBan1I0MRzJhqz7Fn9MQ-6" edge="1">
          <mxGeometry relative="1" as="geometry" />
        </mxCell>
        <mxCell id="04QQaVXtBeui4Vy4h8IW-1" value="default.general_menu(menu)" style="shape=process;whiteSpace=wrap;html=1;backgroundOutline=1;" parent="1" vertex="1">
          <mxGeometry x="474.5" y="400" width="240" height="70" as="geometry" />
        </mxCell>
        <mxCell id="04QQaVXtBeui4Vy4h8IW-9" style="edgeStyle=orthogonalEdgeStyle;rounded=0;orthogonalLoop=1;jettySize=auto;html=1;endArrow=classic;endFill=1;" parent="1" edge="1">
          <mxGeometry relative="1" as="geometry">
            <mxPoint x="595" y="260" as="targetPoint" />
            <mxPoint x="269.5" y="1025" as="sourcePoint" />
            <Array as="points">
              <mxPoint x="235" y="1025" />
              <mxPoint x="235" y="260" />
            </Array>
          </mxGeometry>
        </mxCell>
        <mxCell id="04QQaVXtBeui4Vy4h8IW-7" value="sortcar_menu(user_data, data_carlist, space_cars)" style="shape=process;whiteSpace=wrap;html=1;backgroundOutline=1;" parent="1" vertex="1">
          <mxGeometry x="264.5" y="990" width="240" height="70" as="geometry" />
        </mxCell>
        <mxCell id="04QQaVXtBeui4Vy4h8IW-11" value="" style="edgeStyle=orthogonalEdgeStyle;rounded=0;orthogonalLoop=1;jettySize=auto;html=1;endArrow=classic;endFill=1;" parent="1" source="04QQaVXtBeui4Vy4h8IW-10" target="ZBan1I0MRzJhqz7Fn9MQ-2" edge="1">
          <mxGeometry relative="1" as="geometry" />
        </mxCell>
        <mxCell id="04QQaVXtBeui4Vy4h8IW-10" value="FUNCTION view_allcars(user_data, data_carlist, space_cars)" style="shape=process;whiteSpace=wrap;html=1;backgroundOutline=1;" parent="1" vertex="1">
          <mxGeometry x="475" y="140" width="240" height="70" as="geometry" />
        </mxCell>
        <mxCell id="Fx3aAsQ9bExK4lKImbGH-3" value="" style="edgeStyle=orthogonalEdgeStyle;rounded=0;orthogonalLoop=1;jettySize=auto;html=1;" edge="1" parent="1" source="Fx3aAsQ9bExK4lKImbGH-1" target="ZBan1I0MRzJhqz7Fn9MQ-15">
          <mxGeometry relative="1" as="geometry" />
        </mxCell>
        <mxCell id="Fx3aAsQ9bExK4lKImbGH-1" value="BREAK" style="rounded=1;whiteSpace=wrap;html=1;" vertex="1" parent="1">
          <mxGeometry x="312" y="750" width="145" height="40" as="geometry" />
        </mxCell>
      </root>
    </mxGraphModel>
  </diagram>
</mxfile>
